<svg width="105" height="111" viewBox="0 0 105 111" fill="none" xmlns="http://www.w3.org/2000/svg">
<rect x="0.837891" width="103.845" height="110.345" rx="8" fill="#1D1C23"/>
<path d="M79.6241 15.7208L72 29.2618L72.5312 29.5602L80.1552 16.0192L79.6241 15.7208Z" fill="#F7BB0E"/>
<path d="M96.3246 15.1724L78.3704 28.041L78.7256 28.5356L96.6799 15.667L96.3246 15.1724Z" fill="#F7BB0E"/>
<path d="M87.0717 100.401C86.2352 100.891 85.2634 101.008 84.2908 100.694C82.0333 99.9728 80.3702 97.1176 80.0499 93.4672C79.99 92.7897 79.9715 92.0494 80.0381 91.2957C77.2262 91.7837 74.8983 93.2003 73.0929 95.5293C71.3593 97.7597 70.7944 100.017 70.7833 100.044L70.323 99.9216C70.3481 99.8203 70.9322 97.5552 72.7265 95.2537C74.1122 93.4879 76.4431 91.4352 80.1062 90.8134C80.4713 87.2808 82.1554 83.3256 86.1302 81.1888L86.3559 81.6147C82.5958 83.6152 80.962 87.3677 80.5977 90.7413C81.2017 90.6669 81.8412 90.6228 82.5244 90.6282C86.736 90.6583 88.2711 92.7288 88.8195 93.9702C89.6366 95.846 89.2686 98.2463 87.9584 99.708C87.6882 99.9811 87.3825 100.224 87.0717 100.401ZM80.5296 91.2236C80.4711 91.9965 80.4896 92.7369 80.5303 93.4224C80.8432 96.8947 82.359 99.5628 84.4411 100.245C85.6054 100.636 86.7208 100.323 87.5676 99.3747C88.7756 98.0469 89.0933 95.8493 88.3495 94.1466C87.4998 92.1939 85.4059 91.1082 82.4948 91.0942C81.8116 91.0887 81.1721 91.1329 80.5296 91.2236Z" fill="white"/>
<path d="M33.7967 26.3492L33.3712 26.6318C33.3423 26.5986 30.9269 22.7809 27.3802 19.7431C24.6428 17.4009 22.0485 16.1294 19.5787 15.9742C20.1286 16.8079 20.5543 17.633 20.8059 18.4928C21.4628 20.6912 20.9505 22.6527 19.301 24.1456C16.9846 26.2475 14.2244 26.2283 12.5535 25.5823C11.0957 25.0135 10.1595 23.9035 10.0316 22.6153C9.85196 20.7308 11.3688 18.6827 14.291 16.8411C15.6463 15.9831 17.114 15.523 18.6011 15.4542C16.482 12.7491 12.9595 10.4774 9.68742 9.97032L9.81548 9.47994C13.3027 10.0331 17.075 12.5249 19.272 15.4538C21.9658 15.5308 24.8229 16.8361 27.7668 19.3486C31.3402 22.4507 33.7844 26.3015 33.7967 26.3492ZM10.5568 22.246C10.5647 22.3558 10.5582 22.4489 10.5661 22.5587C10.676 23.6584 11.4989 24.6045 12.7748 25.0984C14.3092 25.6881 16.8665 25.7089 19.0167 23.7515C20.5 22.4031 20.9681 20.6258 20.3769 18.6036C20.113 17.6961 19.6295 16.8046 19.0197 15.9356C17.4894 15.9546 16.0238 16.3837 14.6043 17.2684C11.9934 18.8975 10.5915 20.6415 10.5568 22.246Z" fill="white"/>
<path d="M29.987 81.8791L13.082 89.8112L13.3232 90.3237L30.2282 82.3916L29.987 81.8791Z" fill="#F7BB0E"/>
<path d="M31.0834 86.6851L18.1836 103.877L18.6371 104.217L31.537 87.0247L31.0834 86.6851Z" fill="#F7BB0E"/>
<path fill-rule="evenodd" clip-rule="evenodd" d="M67.5701 43.7103C68.77 42.947 69.566 41.6055 69.566 40.078C69.566 37.7022 67.64 35.7761 65.2642 35.7761C64.8918 35.7761 64.5304 35.8235 64.1859 35.9124C64.1877 35.8672 64.1887 35.8218 64.1887 35.7761C64.1887 33.9942 62.7442 32.5497 60.9623 32.5497C60.9623 30.7678 59.5177 29.3233 57.7358 29.3233C56.3517 29.3233 55.1711 30.195 54.713 31.4193C54.1243 30.7912 53.2872 30.3988 52.3585 30.3988C52.3585 28.6169 50.914 27.1724 49.1321 27.1724C47.3502 27.1724 45.9057 28.6169 45.9057 30.3988C45.9057 30.733 45.9565 31.0554 46.0508 31.3586C45.4658 30.766 44.6532 30.3988 43.7547 30.3988C42.2668 30.3988 41.0142 31.4059 40.6413 32.7757C40.2735 32.6299 39.8725 32.5497 39.4528 32.5497C37.6709 32.5497 36.2264 33.9942 36.2264 35.7761C36.2264 36.1552 36.2918 36.519 36.4119 36.8569C36.3505 36.8534 36.2887 36.8516 36.2264 36.8516C34.4445 36.8516 33 38.2961 33 40.078C33 41.2722 33.6488 42.3149 34.6131 42.8728V44.3799L65.2642 44.3799L67.9528 44.3799L67.5701 43.7103Z" fill="#F7BB0E"/>
<path d="M34.9678 43.3371C34.9481 43.1873 35.0647 43.0544 35.2157 43.0544H67.3504C67.5014 43.0544 67.618 43.1873 67.5983 43.3371L62.4841 82.205C62.4677 82.3294 62.3617 82.4224 62.2362 82.4224H40.3299C40.2044 82.4224 40.0984 82.3294 40.082 82.205L34.9678 43.3371Z" fill="#1D1C23" stroke="white" stroke-width="1.5" stroke-linecap="round" stroke-linejoin="round"/>
<path d="M54.1059 62.3754H51.8052L53.4325 60.7218L52.9836 60.2733L51.3562 61.8989V59.6007H50.7109V61.8989L49.0555 60.2733L48.6066 60.7218L50.262 62.3754H47.9332V62.992H50.262L48.6066 64.6456L49.0555 65.094L50.7109 63.4684V65.7667H51.3562V63.4684L52.9836 65.094L53.4325 64.6456L51.8052 62.992H54.1059V62.3754Z" fill="white"/>
<path d="M51.0195 70.1949C46.867 70.1949 43.5 66.8316 43.5 62.6836C43.5 58.5356 46.867 55.1724 51.0195 55.1724C55.1721 55.1724 58.5391 58.5356 58.5391 62.6836C58.5391 66.8316 55.1721 70.1949 51.0195 70.1949ZM51.0195 55.817C47.2317 55.817 44.1453 58.9 44.1453 62.6836C44.1453 66.4673 47.2317 69.5503 51.0195 69.5503C54.8074 69.5503 57.8937 66.4673 57.8937 62.6836C57.8937 58.9 54.8354 55.817 51.0195 55.817Z" fill="#F7BB0E"/>
</svg>
