<svg width="75" height="69" viewBox="0 0 75 69" fill="none" xmlns="http://www.w3.org/2000/svg">
<path d="M1.65002 16.7496H63.15V52.9996C63.15 53.1377 63.0381 53.2496 62.9 53.2496H1.90002C1.76195 53.2496 1.65002 53.1377 1.65002 52.9996V16.7496Z" fill="#1D1C23" stroke="white" stroke-width="1.5"/>
<path d="M11.8679 30.8903H12.375C12.3651 30.3988 11.946 30.0508 11.3267 30.0508C10.7159 30.0508 10.2571 30.3945 10.2585 30.9087C10.2585 31.3263 10.5554 31.5664 11.0341 31.69L11.3651 31.7752C11.679 31.8547 11.8864 31.9528 11.8878 32.1786C11.8864 32.4272 11.6506 32.5934 11.3068 32.5934C10.9773 32.5934 10.7216 32.4457 10.7003 32.1403H10.1818C10.2031 32.7184 10.6335 33.0437 11.3111 33.0437C12.0085 33.0437 12.4134 32.6957 12.4148 32.1829C12.4134 31.6786 11.9972 31.4485 11.5597 31.3448L11.2869 31.2766C11.0483 31.2198 10.7898 31.119 10.7926 30.8761C10.794 30.6573 10.9901 30.4968 11.3196 30.4968C11.6335 30.4968 11.8409 30.6431 11.8679 30.8903ZM15.3746 31.0721C15.2852 30.4258 14.788 30.0508 14.1431 30.0508C13.3832 30.0508 12.8107 30.6047 12.8107 31.5451C12.8107 32.484 13.3761 33.0394 14.1431 33.0394C14.8349 33.0394 15.2937 32.592 15.3746 32.0366L14.8434 32.0337C14.7766 32.3746 14.4982 32.5664 14.1502 32.5664C13.6786 32.5664 13.3406 32.2127 13.3406 31.5451C13.3406 30.8888 13.6758 30.5238 14.1516 30.5238C14.5053 30.5238 14.7823 30.7241 14.8434 31.0721H15.3746ZM15.8572 32.9996H17.7607V32.5579H16.3842V31.7638H17.6513V31.3221H16.3842V30.5323H17.7493V30.0905H15.8572V32.9996ZM20.6776 30.0905H20.1534V32.0735H20.1278L18.7585 30.0905H18.2869V32.9996H18.8139V31.0181H18.8381L20.2088 32.9996H20.6776V30.0905ZM21.2518 32.9996H23.1552V32.5579H21.7788V31.7638H23.0458V31.3221H21.7788V30.5323H23.1438V30.0905H21.2518V32.9996Z" fill="white"/>
<path d="M43.1591 30.5323H44.0582V32.9996H44.581V30.5323H45.4801V30.0905H43.1591V30.5323ZM45.9496 32.9996L46.1896 32.2823H47.2834L47.5249 32.9996H48.0874L47.0618 30.0905H46.4112L45.3871 32.9996H45.9496ZM46.3317 31.859L46.7251 30.6871H46.7479L47.1413 31.859H46.3317ZM48.4705 32.9996H48.9975V32.1332L49.32 31.7525L50.1879 32.9996H50.8214L49.6864 31.3959L50.8114 30.0905H50.168L49.033 31.4272H48.9975V30.0905H48.4705V32.9996ZM51.1776 32.9996H53.081V32.5579H51.7045V31.7638H52.9716V31.3221H51.7045V30.5323H53.0696V30.0905H51.1776V32.9996Z" fill="white"/>
<path d="M0.154097 10.6962C0.0689917 10.1505 0.442368 9.63914 0.988056 9.55403L61.2595 0.154097C61.8051 0.0689915 62.3165 0.442367 62.4016 0.988055L63.018 4.94028C63.1031 5.48597 62.7297 5.99733 62.184 6.08243L0.924584 15.6365L0.154097 10.6962Z" fill="#F7BB0E"/>
<path d="M2 25.9996H63" stroke="white" stroke-width="1.5" stroke-linecap="round" stroke-linejoin="round"/>
<path d="M2 36.9996H63" stroke="white" stroke-width="1.5" stroke-linecap="round" stroke-linejoin="round"/>
<path d="M32 25.9996L32 36.9996" stroke="white" stroke-width="1.5" stroke-linecap="round" stroke-linejoin="round"/>
<path d="M2 45.9996H63" stroke="white" stroke-width="1.5" stroke-linecap="round" stroke-linejoin="round"/>
<path d="M53.9772 40.4866L54.1549 40.5162L54.5925 40.5893L54.8084 40.6253L54.8727 40.4161C54.8755 40.4068 54.8835 40.3622 54.897 40.286C55.0243 39.5708 55.6477 36.0676 57.242 32.6932L53.9772 40.4866ZM53.9772 40.4866L53.9491 40.3087M53.9772 40.4866L53.9491 40.3087M53.9491 40.3087C53.9452 40.2842 53.946 40.2636 53.9461 40.2612L53.9461 40.261C53.9462 40.2546 53.9466 40.2491 53.9469 40.2458C53.9474 40.2388 53.9481 40.2319 53.9488 40.2261C53.9501 40.2141 53.9521 40.1991 53.9545 40.1818C53.9593 40.1468 53.9667 40.0979 53.9766 40.0361C53.9965 39.9125 54.0271 39.7353 54.0695 39.5126C54.1542 39.0672 54.2862 38.4386 54.4741 37.6917C54.8495 36.1991 55.4494 34.2284 56.3438 32.3032L56.3447 32.3013C57.8085 29.2169 59.6303 27.0834 61.7748 25.9869C62.5449 22.7981 64.6986 19.4078 67.3175 17.6674L67.5105 17.5391L67.653 17.7219L67.9257 18.0715L68.0922 18.285L67.8662 18.434C65.6186 19.9162 63.7167 22.7443 62.896 25.5121M53.9491 40.3087L62.896 25.5121M62.896 25.5121C64.0207 25.1416 65.2334 25.0333 66.4821 25.2132C69.4691 25.6372 71.5303 26.7596 72.0902 28.4964L72.0905 28.4974C72.4705 29.6924 72.0658 31.0243 71.0519 32.0668L71.0514 32.0674C69.8886 33.2557 67.5973 34.3206 64.913 33.4324C62.9788 32.7952 61.8281 31.3104 61.5767 29.2052C61.4945 28.5475 61.5143 27.8708 61.6036 27.1689C59.9399 28.2189 58.4897 30.0561 57.2421 32.6931L62.896 25.5121ZM65.1597 32.5353L65.1599 32.5354C67.4497 33.2973 69.3854 32.3883 70.3493 31.4072C71.1479 30.5904 71.4268 29.6192 71.169 28.8015C71.1564 28.7657 71.1424 28.7324 71.1253 28.6917L71.1242 28.6893C71.1086 28.6524 71.0903 28.609 71.0729 28.5603C70.8087 27.9883 70.2825 27.4816 69.4843 27.0704C68.6816 26.6568 67.6177 26.3474 66.3113 26.1681C64.9624 25.9837 63.7297 26.1481 62.5804 26.6325C62.4179 27.4953 62.3577 28.3195 62.4536 29.0763L62.4536 29.0767C62.6745 30.8406 63.6073 32.0201 65.1597 32.5353Z" fill="white" stroke="white" stroke-width="0.5"/>
<path d="M69.0695 37.3063H44.1402C43.9892 37.3063 43.8727 37.4392 43.8924 37.5889L47.8807 67.9004C47.8971 68.0248 48.0031 68.1178 48.1286 68.1178H65.0812C65.2066 68.1178 65.3127 68.0248 65.329 67.9004L69.3174 37.5889C69.3371 37.4392 69.2205 37.3063 69.0695 37.3063Z" fill="#F7BB0E" stroke="white" stroke-width="1.5" stroke-linecap="round" stroke-linejoin="round"/>
</svg>
