<svg width="24" height="26" viewBox="0 0 24 26" fill="none" xmlns="http://www.w3.org/2000/svg">
<path fill-rule="evenodd" clip-rule="evenodd" d="M9.15722 21.9823V18.7368C9.1572 17.9113 9.79312 17.2405 10.581 17.235H13.4671C14.2587 17.235 14.9005 17.9073 14.9005 18.7368V18.7368V21.9924C14.9003 22.6932 15.4343 23.2661 16.103 23.2825H18.0271C19.9451 23.2825 21.5 21.6534 21.5 19.6439V19.6439V10.4113C21.4898 9.62078 21.1355 8.87841 20.538 8.39549L13.9577 2.84184C12.8049 1.87484 11.1662 1.87484 10.0134 2.84184L3.46203 8.40557C2.86226 8.88653 2.50739 9.63013 2.5 10.4214V19.6439C2.5 21.6534 4.05488 23.2825 5.97291 23.2825H7.89696C8.58235 23.2825 9.13797 22.7004 9.13797 21.9823V21.9823" fill="#F7BB0E"/>
<path d="M9.15722 21.9823V18.7368C9.1572 17.9113 9.79312 17.2405 10.581 17.235H13.4671C14.2587 17.235 14.9005 17.9073 14.9005 18.7368V18.7368V21.9924C14.9003 22.6932 15.4343 23.2661 16.103 23.2825H18.0271C19.9451 23.2825 21.5 21.6534 21.5 19.6439V19.6439V10.4113C21.4898 9.62078 21.1355 8.87841 20.538 8.39549L13.9577 2.84184C12.8049 1.87484 11.1662 1.87484 10.0134 2.84184L3.46203 8.40557C2.86226 8.88653 2.50739 9.63013 2.5 10.4214V19.6439C2.5 21.6534 4.05488 23.2825 5.97291 23.2825H7.89696C8.58235 23.2825 9.13797 22.7004 9.13797 21.9823V21.9823" stroke="#F7BB0E" stroke-width="1.5" stroke-linecap="round" stroke-linejoin="round"/>
</svg>
