<svg width="24" height="24" viewBox="0 0 24 24" fill="none" xmlns="http://www.w3.org/2000/svg">
<g id="Standard/Duotone/Snack Click">
<g id="Snack Click">
<g id="Popcorn">
<path id="Shape" d="M4.19527 18.0023L3.54712 9.36011H12.8882L12.2463 18.0017C12.2151 18.4222 11.8648 18.7474 11.4432 18.7474H4.99834C4.57693 18.7474 4.22678 18.4225 4.19527 18.0023Z" stroke="#F7BB0E" stroke-width="1.5"/>
<path id="Shape_2" opacity="0.4" d="M9.77668 14.0538C9.77668 14.9128 9.08033 15.6091 8.22135 15.6091C7.36236 15.6091 6.66602 14.9128 6.66602 14.0538C6.66602 13.1948 7.36236 12.4985 8.22135 12.4985C9.08033 12.4985 9.77668 13.1948 9.77668 14.0538Z" fill="#F7BB0E"/>
<path id="Shape_3" d="M12.4985 6.63833C13.158 6.63833 13.6926 7.17297 13.6926 7.83249C13.6926 8.49201 13.158 9.02666 12.4985 9.02666H8.22132H3.94416C3.28465 9.02666 2.75 8.49201 2.75 7.83249C2.75 7.17297 3.28465 6.63833 3.94416 6.63833C4.59001 6.63833 5.04392 6.12434 5.09848 5.57403C5.25566 3.98873 6.59429 2.75 8.22132 2.75C9.84835 2.75 11.187 3.98873 11.3442 5.57404C11.3987 6.12434 11.8526 6.63833 12.4985 6.63833Z" stroke="#F7BB0E" stroke-width="1.5"/>
</g>
<g id="Click" opacity="0.4">
<path id="Stroke 3" d="M18.9539 19.0182L17.1466 21.0057C16.9098 21.2661 16.4763 21.1212 16.4438 20.7705L15.926 15.1621C15.8964 14.8431 16.2319 14.6177 16.5158 14.7659L21.4868 17.3522C21.7982 17.5142 21.7702 17.968 21.4413 18.0906L18.9539 19.0182" stroke="#F7BB0E" stroke-width="1.5" stroke-linecap="round" stroke-linejoin="round"/>
</g>
</g>
</g>
</svg>
