<svg width="24" height="25" viewBox="0 0 24 25" fill="none" xmlns="http://www.w3.org/2000/svg">
<path fill-rule="evenodd" clip-rule="evenodd" d="M9.91128 14.6631C13.0985 14.6631 15.8226 15.1499 15.8226 17.0946C15.8226 19.0392 13.1166 19.54 9.91128 19.54C6.72323 19.54 4 19.0575 4 17.112C4 15.1664 6.70509 14.6631 9.91128 14.6631Z" stroke="#F7BB0E" stroke-width="1.5" stroke-linecap="round" stroke-linejoin="round"/>
<path fill-rule="evenodd" clip-rule="evenodd" d="M9.91144 11.8876C7.81891 11.8876 6.12207 10.1781 6.12207 8.0688C6.12207 5.95953 7.81891 4.25 9.91144 4.25C12.0031 4.25 13.6999 5.95953 13.6999 8.0688C13.7077 10.1702 12.023 11.8798 9.93822 11.8876H9.91144Z" stroke="#F7BB0E" stroke-width="1.5" stroke-linecap="round" stroke-linejoin="round"/>
<path opacity="0.4" d="M15.8652 10.8964C17.2484 10.7005 18.3137 9.50386 18.3163 8.05559C18.3163 6.62823 17.2839 5.44383 15.93 5.22002" stroke="#F7BB0E" stroke-width="1.5" stroke-linecap="round" stroke-linejoin="round"/>
<path opacity="0.4" d="M17.6904 14.2498C19.0304 14.4509 19.9661 14.9247 19.9661 15.9001C19.9661 16.5715 19.5255 17.007 18.8136 17.2795" stroke="#F7BB0E" stroke-width="1.5" stroke-linecap="round" stroke-linejoin="round"/>
</svg>
