<svg width="24" height="26" viewBox="0 0 24 26" fill="none" xmlns="http://www.w3.org/2000/svg">
<path fill-rule="evenodd" clip-rule="evenodd" d="M16.2966 16.4441C16.3775 18.383 14.8989 20.0225 12.9944 20.1049C12.8541 20.1112 6.01507 20.0966 6.01507 20.0966C4.11972 20.2488 2.46091 18.8075 2.31141 16.8759C2.30014 16.732 2.30322 8.96607 2.30322 8.96607C2.21925 7.02512 3.6958 5.38141 5.60139 5.29589C5.74372 5.28859 12.5735 5.30215 12.5735 5.30215C14.4781 5.15196 16.142 6.60376 16.2895 8.54472C16.2997 8.68447 16.2966 16.4441 16.2966 16.4441Z" fill="#F7BB0E" stroke="#F7BB0E" stroke-width="1.5" stroke-linecap="round" stroke-linejoin="round"/>
<path fill-rule="evenodd" clip-rule="evenodd" d="M16.2998 10.5616L19.5928 7.7095C20.4088 7.00256 21.6328 7.61849 21.6318 8.73287L21.6198 16.5103C21.6188 17.6247 20.3938 18.2353 19.5798 17.5284L16.2998 14.6763" fill="#F7BB0E"/>
<path d="M16.2998 10.5616L19.5928 7.7095C20.4088 7.00256 21.6328 7.61849 21.6318 8.73287L21.6198 16.5103C21.6188 17.6247 20.3938 18.2353 19.5798 17.5284L16.2998 14.6763" stroke="#F7BB0E" stroke-width="1.5" stroke-linecap="round" stroke-linejoin="round"/>
</svg>
