<svg width="24" height="24" viewBox="0 0 24 24" fill="none" xmlns="http://www.w3.org/2000/svg">
<path fill-rule="evenodd" clip-rule="evenodd" d="M16.2169 4.99997H7.78216C4.84281 4.99997 3 6.73429 3 9.18862V15.8113C3 18.2656 4.83308 20 7.78216 20H16.2159C19.165 20 21 18.2656 21 15.8113V9.18862C21 6.73429 19.165 4.99997 16.2169 4.99997Z" stroke="#818089" stroke-width="1.5" stroke-linecap="round" stroke-linejoin="round"/>
<path fill-rule="evenodd" clip-rule="evenodd" d="M12.0002 8.25C12.2869 8.25 12.5194 8.46899 12.5194 8.73913V9.1393H12.5769C13.5425 9.1393 14.25 9.93011 14.25 10.8142C14.25 11.0843 14.0175 11.3033 13.7308 11.3033C13.444 11.3033 13.2115 11.0843 13.2115 10.8142C13.2115 10.3885 12.8858 10.1176 12.5769 10.1176H12.5194V11.6574L13.2205 11.8976C13.8575 12.1158 14.25 12.7093 14.25 13.3379C14.25 14.1379 13.6088 14.8606 12.725 14.8606H12.5194V15.2609C12.5194 15.531 12.2869 15.75 12.0002 15.75C11.7134 15.75 11.481 15.531 11.481 15.2609V14.8606H11.4231C10.4575 14.8606 9.75 14.0698 9.75 13.1857C9.75 12.9156 9.98247 12.6966 10.2692 12.6966C10.556 12.6966 10.7885 12.9156 10.7885 13.1857C10.7885 13.6114 11.1142 13.8824 11.4231 13.8824H11.481V12.3426L10.7795 12.1024C10.1425 11.8841 9.75 11.2906 9.75 10.6621C9.75 9.862 10.3912 9.1393 11.275 9.1393H11.481V8.73913C11.481 8.46899 11.7134 8.25 12.0002 8.25ZM11.481 10.1176H11.275C11.0479 10.1176 10.7885 10.3204 10.7885 10.6621C10.7885 10.9233 10.9501 11.1198 11.1344 11.183L11.481 11.3017V10.1176ZM12.5194 12.6984V13.8824H12.725C12.9521 13.8824 13.2115 13.6795 13.2115 13.3379C13.2115 13.0766 13.0499 12.8801 12.8656 12.8169L12.5194 12.6984Z" fill="#818089"/>
</svg>
