<svg width="24" height="24" viewBox="0 0 24 24" fill="none" xmlns="http://www.w3.org/2000/svg">
<path d="M8.4 4.93125H15.6C16.2254 4.93125 16.7357 5.44527 16.7357 6.08333V10.7708V11.0313C16.7357 11.6693 16.2254 12.1833 15.6 12.1833H8.4C7.77455 12.1833 7.26429 11.6693 7.26429 11.0313V10.7708V6.08333C7.26429 5.44527 7.77455 4.93125 8.4 4.93125ZM6.19286 6.08333V9.17744C6.00039 9.10058 5.79069 9.05833 5.57143 9.05833H4.54286C3.60614 9.05833 2.85 9.82682 2.85 10.7708V15.9792C2.85 16.9232 3.60614 17.6917 4.54286 17.6917H5.57143C6.01921 17.6917 6.4262 17.5157 6.72857 17.2292C6.97108 17.459 7.28092 17.6177 7.62517 17.6715C7.54342 17.8725 7.49837 18.0925 7.49837 18.3229V18.8438C7.49837 19.7878 8.25448 20.5563 9.19123 20.5563H14.8088C15.7455 20.5563 16.5016 19.7878 16.5016 18.8438V18.3229C16.5016 18.0925 16.4566 17.8725 16.3748 17.6715C16.7191 17.6177 17.0289 17.459 17.2714 17.2292C17.5738 17.5157 17.9808 17.6917 18.4286 17.6917H19.4571C20.3939 17.6917 21.15 16.9232 21.15 15.9792V10.7708C21.15 9.82682 20.3939 9.05833 19.4571 9.05833H18.4286C18.2093 9.05833 17.9996 9.10058 17.8071 9.17744V6.08333C17.8071 4.85171 16.8207 3.85 15.6 3.85H8.4C7.17927 3.85 6.19286 4.85171 6.19286 6.08333ZM9.19123 17.6917H14.8088C15.1502 17.6917 15.4302 17.9725 15.4302 18.3229V18.8438C15.4302 19.1942 15.1502 19.475 14.8088 19.475H9.19123C8.84978 19.475 8.5698 19.1942 8.5698 18.8438V18.3229C8.5698 17.9725 8.84978 17.6917 9.19123 17.6917ZM16.1143 16.6104H14.8088H9.19123H7.88571C7.54431 16.6104 7.26429 16.3296 7.26429 15.9792V13.8958C7.26429 13.5454 7.54431 13.2646 7.88571 13.2646H8.4H15.6H16.1143C16.4557 13.2646 16.7357 13.5454 16.7357 13.8958V15.9792C16.7357 16.3296 16.4557 16.6104 16.1143 16.6104ZM5.57143 10.1396C5.91284 10.1396 6.19286 10.4204 6.19286 10.7708V11.0313V13.8958V15.9792C6.19286 16.3296 5.91284 16.6104 5.57143 16.6104H4.54286C4.20145 16.6104 3.92143 16.3296 3.92143 15.9792V10.7708C3.92143 10.4204 4.20145 10.1396 4.54286 10.1396H5.57143ZM17.8071 11.0313V10.7708C17.8071 10.4204 18.0872 10.1396 18.4286 10.1396H19.4571C19.7986 10.1396 20.0786 10.4204 20.0786 10.7708V15.9792C20.0786 16.3296 19.7986 16.6104 19.4571 16.6104H18.4286C18.0872 16.6104 17.8071 16.3296 17.8071 15.9792V13.8958V11.0313Z" fill="#818089" stroke="#818089" stroke-width="0.3"/>
</svg>
