<svg width="24" height="24" viewBox="0 0 24 24" fill="none" xmlns="http://www.w3.org/2000/svg">
<path fill-rule="evenodd" clip-rule="evenodd" d="M8.18697 10.7502C8.20815 10.1775 7.64188 9.77178 7.15231 10.0698C5.4621 11.0988 4.30527 12.9436 4.22633 15.0789C4.10217 18.4377 6.69092 21.2766 10.0299 21.4C12.2737 21.483 14.2706 20.3176 15.3766 18.5246C15.6639 18.0588 15.3033 17.5037 14.7563 17.4835C14.4503 17.4722 14.1698 17.6409 13.9986 17.8949C13.1469 19.1578 11.6951 19.9606 10.0853 19.901C7.59256 19.8089 5.63107 17.6837 5.72531 15.1343C5.78262 13.5838 6.58657 12.246 7.76849 11.4564C8.00889 11.2957 8.17629 11.0392 8.18697 10.7502Z" fill="#818089"/>
<path d="M11.2656 7.75385L11.2656 12.5301C11.2656 13.6347 12.1611 14.5301 13.2656 14.5301L16.5632 14.5301C17.6677 14.5301 18.5632 15.4256 18.5632 16.5301L18.5632 20.2639" stroke="#818089" stroke-width="1.5" stroke-linecap="round" stroke-linejoin="round"/>
<path fill-rule="evenodd" clip-rule="evenodd" d="M11.3559 7.53262C10.3243 7.53262 9.48779 6.69645 9.48779 5.66475C9.48779 4.63305 10.3243 3.79687 11.3559 3.79687C12.387 3.79687 13.2235 4.63305 13.2235 5.66475C13.2274 6.69261 12.3968 7.52879 11.3691 7.53262L11.3559 7.53262Z" stroke="#818089" stroke-width="1.5" stroke-linecap="round" stroke-linejoin="round"/>
</svg>
