<svg width="16" height="17" viewBox="0 0 16 17" fill="none" xmlns="http://www.w3.org/2000/svg">
<path d="M11.4597 2.5025L9.76659 2.5C7.86446 2.5 6.63522 3.65914 6.63522 5.45322V6.81485H4.93289C4.78579 6.81485 4.66667 6.92446 4.66667 7.05966V9.03251C4.66667 9.16771 4.78593 9.27719 4.93289 9.27719H6.63522V14.2553C6.63522 14.3905 6.75434 14.5 6.90144 14.5H9.1225C9.2696 14.5 9.38872 14.3904 9.38872 14.2553V9.27719H11.3791C11.5262 9.27719 11.6454 9.16771 11.6454 9.03251L11.6462 7.05966C11.6462 6.99474 11.6181 6.93257 11.5682 6.88663C11.5184 6.84069 11.4504 6.81485 11.3798 6.81485H9.38872V5.66058C9.38872 5.10579 9.53256 4.82415 10.3189 4.82415L11.4594 4.82377C11.6064 4.82377 11.7255 4.71416 11.7255 4.57909V2.74718C11.7255 2.61223 11.6065 2.50275 11.4597 2.5025Z" fill="#4285F4"/>
</svg>
