<svg width="16" height="17" viewBox="0 0 16 17" fill="none" xmlns="http://www.w3.org/2000/svg">
<path d="M14 8.635C14 8.38939 13.9862 8.15151 13.961 7.91896C13.9347 7.6762 13.7241 7.5 13.4799 7.5H8.63026C8.35412 7.5 8.13026 7.72386 8.13026 8V9.255C8.13026 9.53114 8.35412 9.755 8.63026 9.755H11.4355C11.2874 10.495 10.8531 11.12 10.2094 11.545V13.045H12.1814C13.3359 12 14 10.46 14 8.635Z" fill="#4285F4"/>
<path d="M8.13029 14.5C9.78546 14.5 11.1699 13.96 12.1814 13.045L10.2095 11.545C9.65775 11.905 8.95788 12.125 8.13029 12.125C6.53131 12.125 5.17755 11.07 4.69223 9.64502H2.65903V11.19C3.66541 13.15 5.73438 14.5 8.13029 14.5Z" fill="#34A853"/>
<path d="M4.69221 9.645C4.5645 9.285 4.49808 8.9 4.49808 8.5C4.49808 8.1 4.5696 7.715 4.69221 7.355V5.81H2.659C2.2401 6.62 2 7.53 2 8.5C2 9.47 2.2401 10.38 2.659 11.19L4.69221 9.645Z" fill="#FBBC05"/>
<path d="M8.13029 4.875C8.86738 4.875 9.53997 5.07767 10.1093 5.47489C10.3284 5.62777 10.6305 5.6279 10.8215 5.44101L11.8502 4.4341C12.0551 4.23355 12.0509 3.90029 11.8236 3.72545C10.8262 2.95801 9.58247 2.5 8.13029 2.5C5.73438 2.5 3.66541 3.85 2.65903 5.81L4.69223 7.355C5.17755 5.93 6.53131 4.875 8.13029 4.875Z" fill="#EA4335"/>
</svg>
