<svg width="80" height="17" viewBox="0 0 80 17" fill="none" xmlns="http://www.w3.org/2000/svg">
<path d="M13.0983 6.54683C12.6934 3.18746 10.1508 1.25564 6.78436 1.25564C2.94203 1.25564 0.00878906 3.96871 0.00878906 8.72723C0.00878906 13.4715 2.89231 16.1988 6.78436 16.1988C10.5131 16.1988 12.7645 13.7201 13.0983 11.0426L9.98748 11.0284C9.69629 12.5838 8.4747 13.4786 6.83407 13.4786C4.62527 13.4786 3.12669 11.838 3.12669 8.72723C3.12669 5.70166 4.60396 3.97581 6.85538 3.97581C8.53862 3.97581 9.75311 4.94882 9.98748 6.54683H13.0983Z" fill="white"/>
<path d="M15.2467 16H18.2723V5.09087H15.2467V16ZM16.7666 3.68462C17.6686 3.68462 18.4072 2.9957 18.4072 2.15052C18.4072 1.31246 17.6686 0.623535 16.7666 0.623535C15.8717 0.623535 15.1331 1.31246 15.1331 2.15052C15.1331 2.9957 15.8717 3.68462 16.7666 3.68462Z" fill="white"/>
<path d="M23.7215 9.69314C23.7286 8.28689 24.5667 7.46302 25.7883 7.46302C27.0028 7.46302 27.7343 8.25848 27.7272 9.59371V16H30.7528V9.05393C30.7528 6.51132 29.2613 4.94882 26.9885 4.94882C25.3692 4.94882 24.1974 5.74427 23.7073 7.01558H23.5795V5.09087H20.6959V16H23.7215V9.69314Z" fill="white"/>
<path d="M38.1089 16.213C40.8078 16.213 42.626 14.8991 43.0521 12.875L40.2538 12.6903C39.9484 13.5213 39.1672 13.9545 38.1586 13.9545C36.6459 13.9545 35.6871 12.9531 35.6871 11.3267V11.3196H43.116V10.4886C43.116 6.78121 40.8717 4.94882 37.9882 4.94882C34.778 4.94882 32.697 7.22865 32.697 10.5951C32.697 14.0539 34.7496 16.213 38.1089 16.213ZM35.6871 9.44456C35.751 8.20166 36.6956 7.20734 38.0379 7.20734C39.3518 7.20734 40.2609 8.14484 40.268 9.44456H35.6871Z" fill="white"/>
<path d="M50.0194 16.213C52.9243 16.213 54.7496 14.5085 54.8916 12.0014H52.0365C51.8589 13.1662 51.0919 13.8196 50.055 13.8196C48.6416 13.8196 47.7254 12.6335 47.7254 10.5454C47.7254 8.48575 48.6487 7.30677 50.055 7.30677C51.1629 7.30677 51.8731 8.03831 52.0365 9.12496H54.8916C54.7638 6.60365 52.8532 4.94882 50.0052 4.94882C46.6956 4.94882 44.6501 7.24285 44.6501 10.588C44.6501 13.9048 46.6601 16.213 50.0194 16.213Z" fill="white"/>
<path d="M72.1199 9.69314C72.127 8.28689 72.9651 7.46302 74.1867 7.46302C75.4012 7.46302 76.1327 8.25848 76.1256 9.59371V16H79.1512V9.05393C79.1512 6.51132 77.6597 4.94882 75.387 4.94882C73.7677 4.94882 72.5958 5.74427 72.1057 7.01558H71.9779V5.09087H69.0944V16H72.1199V9.69314Z" fill="white"/>
<circle cx="62" cy="10.5" r="5.5" fill="#F7BB0E"/>
</svg>
